<svg xmlns="http://www.w3.org/2000/svg" viewBox="0 0 457.23 91.45"><defs><style>.cls-1{fill:none;}.cls-2{fill:#989798;}</style></defs><g id="레이어_2" data-name="레이어 2"><g id="레이어_2-2" data-name="레이어 2"><rect class="cls-1" width="457.23" height="91.45"/><path class="cls-2" d="M22,44.09A60.72,60.72,0,0,1,7.22,45.83H4.29V15.08H21.13v5.38H10.62V40.3a36.52,36.52,0,0,0,5.45-.4,43.37,43.37,0,0,0,5.3-1.11ZM58.12,66.54A13.26,13.26,0,0,1,56.94,72,13.82,13.82,0,0,1,53.5,76.7,16.79,16.79,0,0,1,48,79.9a21.93,21.93,0,0,1-7.47,1.18A22.12,22.12,0,0,1,33,79.9a16.84,16.84,0,0,1-5.54-3.2A13.28,13.28,0,0,1,24,72a13.55,13.55,0,0,1-1.15-5.49A13.34,13.34,0,0,1,24,61.08a13.81,13.81,0,0,1,3.39-4.66A17,17,0,0,1,33,53.14a21.39,21.39,0,0,1,7.55-1.22A21.37,21.37,0,0,1,48,53.14a16.88,16.88,0,0,1,5.54,3.28A14,14,0,0,1,57,61.08,13.5,13.5,0,0,1,58.12,66.54ZM44.76,44.09a62.23,62.23,0,0,1-8.69,1.34q-4.59.41-8.85.4H24.29V15.08h18.1v5.38H30.62V40.3A49.28,49.28,0,0,0,37.26,40a59.07,59.07,0,0,0,6.87-1.19ZM40.5,57.21a14.37,14.37,0,0,0-5,.79A9.91,9.91,0,0,0,32,60.14a8.68,8.68,0,0,0-2.06,3,9.44,9.44,0,0,0-.67,3.44,8.67,8.67,0,0,0,.67,3.28A8.52,8.52,0,0,0,32,72.82a10.3,10.3,0,0,0,3.48,2.1,14.37,14.37,0,0,0,5,.79,14.54,14.54,0,0,0,5-.79A10.25,10.25,0,0,0,49,72.82a8.44,8.44,0,0,0,2.73-6.2,9.23,9.23,0,0,0-.67-3.44,8.68,8.68,0,0,0-2.06-3A9.87,9.87,0,0,0,45.48,58,14.54,14.54,0,0,0,40.5,57.21ZM52,11.68h6.48V49.23H52Z"/><path class="cls-2" d="M69.66,55.47a58,58,0,0,0,10.2-7,49.61,49.61,0,0,0,7.51-8,35.17,35.17,0,0,0,4.7-8.53,25.89,25.89,0,0,0,1.7-8.62H72.9V17.69h27.35v2.13a40.82,40.82,0,0,1-1.42,11,39.28,39.28,0,0,1-4.11,9.6l7.71,7,7.62,7L105.39,59,91.48,45.2a50.53,50.53,0,0,1-8.1,8.26A100.24,100.24,0,0,1,73.3,60.61Zm54.23,22.29h-6.41V11.68h6.41Z"/><path class="cls-2" d="M178.11,58.79Q167.21,60.38,155.78,61t-22.57.59V56q4.42,0,8.78-.08c2.89-.05,5.85-.13,8.85-.24V44.56A18.15,18.15,0,0,1,145,42.75a15.67,15.67,0,0,1-4.35-3.32A13.59,13.59,0,0,1,137.92,35,15.11,15.11,0,0,1,137,29.7a14.65,14.65,0,0,1,4.42-10.63,15.7,15.7,0,0,1,5.26-3.32,19.63,19.63,0,0,1,7.15-1.22A19.35,19.35,0,0,1,161,15.75a15.67,15.67,0,0,1,5.21,3.32,14.21,14.21,0,0,1,3.25,4.82,16,16,0,0,1,.23,11,13.68,13.68,0,0,1-2.57,4.43,14.59,14.59,0,0,1-4.19,3.32,17.37,17.37,0,0,1-5.65,1.82v10.9q5.14-.22,10.24-.75c3.4-.34,6.78-.75,10.16-1.22ZM143.33,29.63a9,9,0,0,0,2.89,7,10.73,10.73,0,0,0,7.62,2.69,10.49,10.49,0,0,0,7.51-2.69,9.12,9.12,0,0,0,2.85-6.95,9.13,9.13,0,0,0-2.85-7A10.49,10.49,0,0,0,153.84,20a10.73,10.73,0,0,0-7.62,2.69A9.05,9.05,0,0,0,143.33,29.63Zm43.87,5.69h10.51v5.61H187.2V77.76h-6.4V11.68h6.4Z"/><path class="cls-2" d="M233.12,13.9v4.5a23.9,23.9,0,0,1-2.45,11,30,30,0,0,1-6.44,8.57,39.49,39.49,0,0,1-9.13,6.33,57.61,57.61,0,0,1-10.43,4.11l-3.8-8.46a51.69,51.69,0,0,0,8.66-3.16,34.68,34.68,0,0,0,6.92-4.27,22.13,22.13,0,0,0,4.66-5.06A11.19,11.19,0,0,0,223,22H202.3V13.9ZM253.2,68.28H223.4v4.11h32v7.82H213.28V49.15h40.63V56.9H223.4v4h29.8Zm.4-43.95h10.27V33H253.6v13.2H243.48V11.68H253.6Z"/><path class="cls-2" d="M286.72,15.79a19.06,19.06,0,0,1,7.86,1.58,17.35,17.35,0,0,1,6,4.39,20.07,20.07,0,0,1,3.79,6.6,24.36,24.36,0,0,1,1.35,8.22,24.36,24.36,0,0,1-1.35,8.22,20.07,20.07,0,0,1-3.79,6.6,17.22,17.22,0,0,1-6,4.39,19.06,19.06,0,0,1-7.86,1.58,19.51,19.51,0,0,1-8-1.58,17.4,17.4,0,0,1-6-4.39,20.27,20.27,0,0,1-3.88-6.6,23.88,23.88,0,0,1-1.38-8.22,23.88,23.88,0,0,1,1.38-8.22,20.27,20.27,0,0,1,3.88-6.6,17.53,17.53,0,0,1,6-4.39A19.51,19.51,0,0,1,286.72,15.79Zm0,8.46a8.62,8.62,0,0,0-6.64,3.08q-2.77,3.09-2.77,9.25a17.34,17.34,0,0,0,.75,5.38,11.38,11.38,0,0,0,2.06,3.83,8.57,8.57,0,0,0,3,2.33,8.49,8.49,0,0,0,10.12-2.29q2.64-3.09,2.64-9.25t-2.64-9.25A8.29,8.29,0,0,0,286.72,24.25Zm26.63-12.57h10.12V77.76H313.35Z"/><path class="cls-2" d="M366.31,22.51a39,39,0,0,1-2.25,13.6,42.36,42.36,0,0,1-6,11,49.15,49.15,0,0,1-8.57,8.78,79.45,79.45,0,0,1-10,6.76l-5.46-8.15a71.6,71.6,0,0,0,8.66-5.77,42.74,42.74,0,0,0,7.07-6.87,32.83,32.83,0,0,0,4.78-8,23,23,0,0,0,1.78-9H335.49V16.5h30.82Zm19.76,11.62h10.28v8.62H386.07v35H376V11.68h10.11Z"/><path class="cls-2" d="M435.4,59.35l-13-12.26A52.8,52.8,0,0,1,414,55a74.71,74.71,0,0,1-9.09,5.89l-5.29-7.83a55.26,55.26,0,0,0,8.34-5.22,51.67,51.67,0,0,0,7-6.32,33.11,33.11,0,0,0,4.94-6.88A17.3,17.3,0,0,0,422,27.73H402.83v-8.3h10V10.65h9.8v8.78h9.56v3a33.12,33.12,0,0,1-1.3,9.41,38.18,38.18,0,0,1-3.6,8.38l14.78,11.62ZM456,77.76H445.83V11.68H456Z"/></g></g></svg>