<svg xmlns="http://www.w3.org/2000/svg" viewBox="0 0 407.07 247.78"><defs><style>.cls-1{fill:none;}.cls-2{fill:#333;}</style></defs><g id="레이어_2" data-name="레이어 2"><g id="레이어_2-2" data-name="레이어 2"><rect class="cls-1" width="407.07" height="247.78"/><path class="cls-2" d="M19,122.72A53.42,53.42,0,0,1,5.9,124.26H3.31V97.08H18.19v4.76H8.9v17.53a32.08,32.08,0,0,0,4.82-.35,38.48,38.48,0,0,0,4.68-1Zm31.93,19.85a11.74,11.74,0,0,1-1,4.85,12.07,12.07,0,0,1-3,4.12,14.43,14.43,0,0,1-4.89,2.83,19.28,19.28,0,0,1-6.6,1,19.54,19.54,0,0,1-6.67-1,14.63,14.63,0,0,1-4.89-2.83,11.73,11.73,0,0,1-3-4.12,12.19,12.19,0,0,1-1-4.85,11.9,11.9,0,0,1,1-4.82,12.33,12.33,0,0,1,3-4.13,15.1,15.1,0,0,1,4.89-2.9,19,19,0,0,1,6.67-1.08A19,19,0,0,1,42,130.72a14.89,14.89,0,0,1,4.89,2.9,12.33,12.33,0,0,1,3,4.13A11.9,11.9,0,0,1,50.89,142.57ZM39.08,122.72a54.61,54.61,0,0,1-7.68,1.19c-2.7.24-5.31.35-7.83.35H21V97.08H37v4.76H26.58v17.53a41,41,0,0,0,5.87-.28,52.2,52.2,0,0,0,6.08-1Zm-3.77,11.6a12.67,12.67,0,0,0-4.43.7,8.92,8.92,0,0,0-3.08,1.89A7.77,7.77,0,0,0,26,139.6a8.3,8.3,0,0,0-.59,3,7.45,7.45,0,0,0,2.41,5.48A9,9,0,0,0,30.88,150a12.44,12.44,0,0,0,4.43.7,12.5,12.5,0,0,0,4.4-.7,8.87,8.87,0,0,0,3.11-1.85,7.51,7.51,0,0,0,1.82-2.58,7.67,7.67,0,0,0,.59-2.9,8.3,8.3,0,0,0-.59-3,7.64,7.64,0,0,0-1.82-2.69A8.78,8.78,0,0,0,39.71,135,12.73,12.73,0,0,0,35.31,134.32Zm10.2-40.24h5.73v33.19H45.51Z"/><path class="cls-2" d="M61.09,132.79a51.53,51.53,0,0,0,9-6.19,43.77,43.77,0,0,0,6.64-7.09A31.16,31.16,0,0,0,80.9,112a23.17,23.17,0,0,0,1.5-7.62H64v-5H88.13v1.89A36,36,0,0,1,86.87,111a34.73,34.73,0,0,1-3.63,8.49l6.81,6.15q3.39,3.07,6.74,6.15l-4.12,4.05L80.38,123.7a44.14,44.14,0,0,1-7.17,7.3,87.41,87.41,0,0,1-8.9,6.33ZM109,152.49h-5.66V94.08H109Z"/><path class="cls-2" d="M157,135.72q-9.64,1.4-19.74,1.92t-20,.53v-4.9q3.92,0,7.76-.07t7.82-.21v-9.85a16.09,16.09,0,0,1-5.2-1.6,13.24,13.24,0,0,1-3.84-2.94,12,12,0,0,1-2.38-3.94,13.37,13.37,0,0,1-.8-4.65,13,13,0,0,1,3.91-9.4,13.68,13.68,0,0,1,4.64-2.93,17.28,17.28,0,0,1,6.33-1.09,17,17,0,0,1,6.29,1.09,13.84,13.84,0,0,1,4.61,2.93,12.69,12.69,0,0,1,2.86,4.26,14.07,14.07,0,0,1,.21,9.75,12.18,12.18,0,0,1-2.27,3.91,12.73,12.73,0,0,1-3.7,2.94,15.29,15.29,0,0,1-5,1.6v9.65q4.55-.21,9.05-.67c3-.3,6-.66,9-1.08Zm-30.74-25.78a8,8,0,0,0,2.55,6.15,9.49,9.49,0,0,0,6.74,2.37,9.25,9.25,0,0,0,6.63-2.37,8.76,8.76,0,0,0,0-12.3,9.25,9.25,0,0,0-6.63-2.37,9.49,9.49,0,0,0-6.74,2.37A8,8,0,0,0,126.21,109.94ZM165,115h9.29v5H165v32.56h-5.66V94.08H165Z"/><path class="cls-2" d="M205.57,96v4a21.26,21.26,0,0,1-2.16,9.68,26.93,26.93,0,0,1-5.7,7.58,34.68,34.68,0,0,1-8.07,5.58,51.19,51.19,0,0,1-9.22,3.64L177.07,119a45.67,45.67,0,0,0,7.65-2.79,30.27,30.27,0,0,0,6.11-3.78A19,19,0,0,0,195,108a9.76,9.76,0,0,0,1.68-4.82h-18.3V96Zm17.75,48.06H197v3.64h28.29v6.91H188V127.2H224V134H197v3.5h26.34Zm.35-38.84h9.08v7.68h-9.08v11.67h-8.95V94.08h8.95Z"/><path class="cls-2" d="M252.94,97.71a16.79,16.79,0,0,1,6.95,1.4,15.19,15.19,0,0,1,5.28,3.88,17.83,17.83,0,0,1,3.35,5.83,22.77,22.77,0,0,1,0,14.53,17.88,17.88,0,0,1-3.35,5.84,15.16,15.16,0,0,1-5.28,3.87,16.63,16.63,0,0,1-6.95,1.4,17,17,0,0,1-7.05-1.4,15.43,15.43,0,0,1-5.35-3.87,17.85,17.85,0,0,1-3.42-5.84,22.07,22.07,0,0,1,0-14.53,17.81,17.81,0,0,1,3.42-5.83,15.46,15.46,0,0,1,5.35-3.88A17.16,17.16,0,0,1,252.94,97.71Zm0,7.48a7.64,7.64,0,0,0-5.87,2.72c-1.63,1.82-2.44,4.54-2.44,8.18a15.39,15.39,0,0,0,.66,4.75,10,10,0,0,0,1.82,3.39,7.9,7.9,0,0,0,2.65,2.06,7.53,7.53,0,0,0,3.18.7,7.33,7.33,0,0,0,5.77-2.73c1.56-1.81,2.34-4.54,2.34-8.17s-.78-6.36-2.34-8.18A7.35,7.35,0,0,0,252.94,105.19Zm23.55-11.11h8.94v58.41h-8.94Z"/><path class="cls-2" d="M323.3,103.65a34.36,34.36,0,0,1-2,12,37.23,37.23,0,0,1-5.3,9.74,43.53,43.53,0,0,1-7.58,7.76,69,69,0,0,1-8.81,6L294.79,132a65.2,65.2,0,0,0,7.65-5.1,38,38,0,0,0,6.25-6.08,29.16,29.16,0,0,0,4.23-7,20.38,20.38,0,0,0,1.57-8H296.05V98.34H323.3Zm17.46,10.27h9.08v7.62h-9.08v31h-8.94V94.08h8.94Z"/><path class="cls-2" d="M384.36,136.21,372.9,125.38a46.68,46.68,0,0,1-7.48,7,65.75,65.75,0,0,1-8,5.21l-4.68-6.92a49.5,49.5,0,0,0,7.37-4.61,45.87,45.87,0,0,0,6.22-5.59,29.52,29.52,0,0,0,4.36-6.08,15.3,15.3,0,0,0,1.89-6.15h-17v-7.33h8.88V93.17h8.66v7.76h8.45v2.65a29.25,29.25,0,0,1-1.15,8.32,33.93,33.93,0,0,1-3.18,7.4l13.07,10.27Zm18.16,16.28h-8.94V94.08h8.94Z"/></g></g></svg>