<svg xmlns="http://www.w3.org/2000/svg" viewBox="0 0 87.49 75.57"><defs><style>.cls-1{fill:#dc287c;}</style></defs><g id="레이어_2" data-name="레이어 2"><g id="레이어_2-2" data-name="레이어 2"><path class="cls-1" d="M87.49,19.2a26.68,26.68,0,0,1-2,9.75,57,57,0,0,1-5.36,10.21,93.45,93.45,0,0,1-7.76,10.15q-4.4,5-9.3,9.75T53.18,68c-3.32,2.78-6.48,5.31-9.5,7.62-3-2.31-6.18-4.84-9.5-7.62s-6.59-5.74-9.82-8.89-6.31-6.4-9.24-9.75A92.07,92.07,0,0,1,7.37,39.16,57.78,57.78,0,0,1,2,29a26.49,26.49,0,0,1-2-9.8,16.8,16.8,0,0,1,1.74-7.57A19.59,19.59,0,0,1,6.46,5.54a22.23,22.23,0,0,1,7-4.07A24.55,24.55,0,0,1,22,0,21.73,21.73,0,0,1,35.35,4.11q5.49,4.12,8.33,13.56Q46.53,8.24,52,4.11A21.89,21.89,0,0,1,65.52,0a24.55,24.55,0,0,1,8.53,1.47,22.23,22.23,0,0,1,7,4.07,19.59,19.59,0,0,1,4.72,6.09A16.8,16.8,0,0,1,87.49,19.2Z"/></g></g></svg>